<svg width="100" height="82" viewBox="0 0 100 82" fill="none" xmlns="http://www.w3.org/2000/svg">
<path d="M6.25 12.0758C11.7812 9.76331 19.7125 7.26956 27.425 6.49455C35.7375 5.65705 42.7875 6.88831 46.875 11.1946V72.1071C41.0312 68.7946 33.625 68.3383 26.7938 69.0258C19.4188 69.7758 11.9812 71.9071 6.25 74.0946V12.0758ZM53.125 11.1946C57.2125 6.88831 64.2625 5.65705 72.575 6.49455C80.2875 7.26956 88.2188 9.76331 93.75 12.0758V74.0946C88.0125 71.9071 80.5813 69.7696 73.2063 69.0321C66.3688 68.3383 58.9688 68.7883 53.125 72.1071V11.1946ZM50 5.54456C43.8438 0.250805 34.9188 -0.536695 26.7938 0.275805C17.3313 1.23206 7.78125 4.47581 1.83125 7.18206C1.28531 7.43035 0.822346 7.83051 0.497631 8.33476C0.172917 8.83901 0.000166071 9.42605 0 10.0258L0 78.7758C0.000144762 79.2987 0.131482 79.8131 0.381982 80.2721C0.632482 80.731 0.994136 81.1198 1.43382 81.4028C1.8735 81.6857 2.37715 81.8539 2.89865 81.8917C3.42014 81.9296 3.9428 81.836 4.41875 81.6196C9.93125 79.1196 18.8125 76.1133 27.4188 75.2446C36.225 74.3571 43.6063 75.7883 47.5625 80.7258C47.8553 81.0908 48.2264 81.3854 48.6482 81.5878C49.0701 81.7902 49.5321 81.8952 50 81.8952C50.4679 81.8952 50.9299 81.7902 51.3518 81.5878C51.7736 81.3854 52.1447 81.0908 52.4375 80.7258C56.3938 75.7883 63.775 74.3571 72.575 75.2446C81.1875 76.1133 90.075 79.1196 95.5813 81.6196C96.0572 81.836 96.5799 81.9296 97.1014 81.8917C97.6228 81.8539 98.1265 81.6857 98.5662 81.4028C99.0059 81.1198 99.3675 80.731 99.618 80.2721C99.8685 79.8131 99.9999 79.2987 100 78.7758V10.0258C99.9998 9.42605 99.8271 8.83901 99.5024 8.33476C99.1777 7.83051 98.7147 7.43035 98.1687 7.18206C92.2188 4.47581 82.6688 1.23206 73.2063 0.275805C65.0813 -0.542945 56.1562 0.250805 50 5.54456Z" fill="#197FE6"/>
<path d="M23.6328 52.375C21.875 52.375 20.4297 52.2539 19.2969 52.0117C18.1641 51.7773 17.2773 51.3398 16.6367 50.6992C16.0039 50.0586 15.5586 49.1367 15.3008 47.9336C15.0508 46.7305 14.9258 45.1641 14.9258 43.2344V42.7656C14.9258 41.1719 15.0039 39.8359 15.1602 38.7578C15.3164 37.6719 15.5859 36.7891 15.9688 36.1094C16.3516 35.4297 16.8711 34.9102 17.5273 34.5508C18.1914 34.1914 19.0234 33.9492 20.0234 33.8242C21.0234 33.6914 22.2266 33.625 23.6328 33.625H28.3555C29.7617 33.625 30.9648 33.6914 31.9648 33.8242C32.9648 33.9492 33.793 34.1914 34.4492 34.5508C35.1133 34.9102 35.6367 35.4297 36.0195 36.1094C36.4023 36.7891 36.6719 37.6719 36.8281 38.7578C36.9844 39.8359 37.0625 41.1719 37.0625 42.7656V43.2344C37.0625 45.1641 36.9336 46.7305 36.6758 47.9336C36.4258 49.1367 35.9805 50.0586 35.3398 50.6992C34.707 51.3398 33.8242 51.7773 32.6914 52.0117C31.5586 52.2539 30.1133 52.375 28.3555 52.375H23.6328ZM23.6328 50.4297H28.3555C29.4727 50.4297 30.4141 50.3906 31.1797 50.3125C31.9453 50.2344 32.5664 50.0664 33.043 49.8086C33.5273 49.5508 33.8945 49.1602 34.1445 48.6367C34.4023 48.1133 34.5781 47.4141 34.6719 46.5391C34.7656 45.6641 34.8125 44.5625 34.8125 43.2344V42.7656C34.8125 41.3906 34.7656 40.2578 34.6719 39.3672C34.5781 38.4766 34.4023 37.7734 34.1445 37.2578C33.8945 36.7422 33.5273 36.3672 33.043 36.1328C32.5664 35.8906 31.9453 35.7383 31.1797 35.6758C30.4141 35.6055 29.4727 35.5703 28.3555 35.5703H23.6328C22.5156 35.5703 21.5742 35.6055 20.8086 35.6758C20.043 35.7383 19.418 35.8906 18.9336 36.1328C18.457 36.3672 18.0898 36.7422 17.832 37.2578C17.582 37.7734 17.4102 38.4766 17.3164 39.3672C17.2227 40.2578 17.1758 41.3906 17.1758 42.7656V43.2344C17.1758 44.5625 17.2227 45.6641 17.3164 46.5391C17.4102 47.4141 17.582 48.1133 17.832 48.6367C18.0898 49.1602 18.457 49.5508 18.9336 49.8086C19.418 50.0664 20.043 50.2344 20.8086 50.3125C21.5742 50.3906 22.5156 50.4297 23.6328 50.4297Z" fill="white"/>
<path d="M64.4375 52V34H66.6875V41.875H69.6758L81.3125 34H84.6875L71.9375 42.8125L85.0625 52H81.6875L69.6875 43.75H66.6875V52H64.4375Z" fill="white"/>
</svg>
